<?xml version="1.0" encoding="UTF-8"?>
<svg xmlns="http://www.w3.org/2000/svg" xmlns:xlink="http://www.w3.org/1999/xlink" width="40px" height="40px" viewBox="0 0 40 40" version="1.1">
<g id="surface1">
<path style=" stroke:none;fill-rule:nonzero;fill:rgb(0%,0%,0%);fill-opacity:1;" d="M 39.585938 30.761719 C 38.160156 31.125 37.277344 30.777344 36.488281 29.589844 C 34.710938 26.929688 32.753906 24.394531 30.863281 21.808594 C 30.617188 21.476562 30.367188 21.148438 30.050781 20.730469 C 27.8125 23.75 25.578125 26.625 23.480469 29.617188 C 22.730469 30.683594 21.945312 31.148438 20.542969 30.773438 L 28.957031 19.480469 L 21.125 9.285156 C 22.472656 9.023438 23.402344 9.15625 24.226562 10.363281 C 26.050781 13.023438 28.058594 15.558594 30.0625 18.242188 C 32.078125 15.570312 34.0625 13.03125 35.9375 10.394531 C 36.691406 9.324219 37.5 8.917969 38.851562 9.3125 C 37.828125 10.671875 36.824219 12.007812 35.816406 13.335938 C 34.453125 15.128906 33.117188 16.941406 31.703125 18.695312 C 31.199219 19.320312 31.28125 19.726562 31.730469 20.316406 C 34.34375 23.75 36.925781 27.21875 39.585938 30.761719 Z M 39.585938 30.761719 "/>
<path style=" stroke:none;fill-rule:nonzero;fill:rgb(0%,0%,0%);fill-opacity:1;" d="M 0.414062 19.292969 C 0.640625 18.164062 0.789062 17.015625 1.101562 15.910156 C 2.976562 9.210938 10.664062 6.429688 15.945312 10.578125 C 19.039062 13.011719 19.808594 16.445312 19.65625 20.3125 L 2.21875 20.3125 C 1.957031 27.253906 6.953125 31.445312 13.320312 29.304688 C 15.554688 28.554688 16.871094 26.804688 17.53125 24.617188 C 17.867188 23.523438 18.417969 23.351562 19.449219 23.664062 C 18.921875 26.398438 17.726562 28.6875 15.226562 30.117188 C 11.476562 32.261719 6.121094 31.570312 3.304688 28.589844 C 1.644531 26.839844 0.9375 24.664062 0.625 22.308594 C 0.578125 21.933594 0.480469 21.566406 0.40625 21.195312 C 0.414062 20.558594 0.414062 19.925781 0.414062 19.292969 Z M 2.25 18.828125 L 18.007812 18.828125 C 17.90625 13.808594 14.78125 10.242188 10.507812 10.210938 C 5.820312 10.175781 2.453125 13.65625 2.25 18.828125 Z M 2.25 18.828125 "/>
</g>
</svg>
