<?xml version="1.0" encoding="UTF-8"?>
<svg xmlns="http://www.w3.org/2000/svg" xmlns:xlink="http://www.w3.org/1999/xlink" width="40px" height="40px" viewBox="0 0 40 40" version="1.1">
<g id="surface1">
<path style=" stroke:none;fill-rule:evenodd;fill:rgb(30.980393%,66.666669%,25.490198%);fill-opacity:1;" d="M 25.875 10.695312 C 25.0625 8.164062 23.757812 5.921875 21.917969 3.992188 C 21.453125 3.503906 20.9375 3.054688 20.609375 2.449219 C 20.40625 2.0625 20.210938 1.675781 20.011719 1.289062 L 19.882812 0.96875 L 19.847656 1.09375 C 19.832031 1.726562 19.476562 2.152344 19.03125 2.554688 C 18.527344 3.003906 18.0625 3.492188 17.582031 3.960938 L 16.101562 5.910156 L 14.90625 8.109375 L 14.105469 10.269531 L 14.082031 10.304688 C 13.640625 11.75 13.421875 13.238281 13.316406 14.738281 C 13.277344 15.304688 13.320312 15.875 13.355469 16.445312 C 13.398438 17.253906 13.539062 18.050781 13.75 18.835938 C 14.519531 21.691406 16.078125 24.054688 18.207031 26.066406 C 18.605469 26.4375 19.03125 26.777344 19.445312 27.132812 L 19.628906 27.761719 L 19.796875 28.734375 L 19.878906 29.75 C 19.878906 29.957031 19.871094 30.164062 19.882812 30.371094 C 19.886719 30.421875 19.953125 30.472656 19.992188 30.523438 L 20.335938 30.644531 L 20.695312 30.78125 L 20.636719 29.878906 L 20.632812 28.988281 L 20.757812 27.632812 L 20.847656 27.339844 L 21.105469 26.882812 C 21.421875 26.625 21.761719 26.394531 22.054688 26.109375 C 22.578125 25.59375 23.101562 25.074219 23.570312 24.507812 C 24.175781 23.777344 24.703125 22.980469 25.121094 22.121094 C 25.402344 21.550781 25.667969 20.964844 25.886719 20.367188 C 26.078125 19.839844 26.199219 19.285156 26.351562 18.742188 L 26.390625 18.625 C 26.707031 17.160156 26.757812 15.679688 26.644531 14.191406 C 26.550781 12.992188 26.269531 11.832031 25.875 10.695312 Z M 19.65625 26.40625 C 19.707031 26.167969 19.765625 25.925781 19.808594 25.683594 C 19.765625 25.925781 19.707031 26.167969 19.65625 26.40625 Z M 20.726562 26.574219 L 20.523438 26.132812 L 20.726562 26.574219 L 21.023438 26.828125 Z M 33.273438 32.175781 C 33.015625 31.679688 32.636719 31.304688 32.136719 31.058594 C 31.714844 30.851562 31.265625 30.761719 30.800781 30.75 C 30.453125 30.738281 30.105469 30.757812 29.757812 30.761719 C 29.449219 30.765625 29.140625 30.769531 28.828125 30.769531 C 28.464844 30.765625 28.101562 30.753906 27.738281 30.742188 C 27.679688 30.742188 27.636719 30.753906 27.609375 30.8125 C 27.5625 30.910156 27.511719 31 27.457031 31.105469 L 27.519531 31.125 C 27.699219 31.15625 27.878906 31.183594 28.058594 31.21875 C 28.289062 31.265625 28.394531 31.398438 28.40625 31.59375 C 28.421875 31.871094 28.425781 32.148438 28.425781 32.425781 C 28.421875 33.523438 28.414062 34.621094 28.40625 35.71875 C 28.402344 35.792969 28.402344 35.867188 28.382812 35.933594 C 28.359375 36.015625 28.335938 36.117188 28.277344 36.15625 C 28.175781 36.222656 28.050781 36.269531 27.929688 36.289062 C 27.753906 36.316406 27.722656 36.324219 27.667969 36.496094 L 27.644531 36.582031 C 27.617188 36.675781 27.632812 36.695312 27.730469 36.695312 C 28.292969 36.703125 28.855469 36.714844 29.421875 36.710938 C 29.933594 36.710938 30.445312 36.742188 30.957031 36.644531 C 31.441406 36.554688 31.894531 36.394531 32.304688 36.125 C 32.839844 35.773438 33.222656 35.308594 33.425781 34.695312 C 33.589844 34.203125 33.625 33.699219 33.570312 33.183594 C 33.535156 32.828125 33.4375 32.492188 33.273438 32.175781 Z M 32.285156 35.195312 C 31.984375 35.757812 31.535156 36.128906 30.894531 36.230469 C 30.492188 36.289062 30.089844 36.273438 29.707031 36.121094 C 29.460938 36.023438 29.371094 35.816406 29.363281 35.566406 C 29.359375 35.324219 29.355469 35.082031 29.355469 34.839844 C 29.351562 33.984375 29.351562 33.128906 29.355469 32.273438 C 29.355469 32.007812 29.359375 31.738281 29.363281 31.46875 C 29.367188 31.277344 29.40625 31.214844 29.589844 31.199219 C 30.402344 31.132812 31.175781 31.21875 31.820312 31.789062 C 32.21875 32.140625 32.445312 32.59375 32.539062 33.109375 C 32.578125 33.324219 32.589844 33.546875 32.613281 33.765625 C 32.59375 34.265625 32.527344 34.75 32.285156 35.195312 Z M 39.09375 34.269531 C 38.9375 33.878906 38.632812 33.636719 38.25 33.480469 C 38.121094 33.425781 37.988281 33.382812 37.847656 33.332031 L 37.894531 33.300781 C 38.046875 33.203125 38.214844 33.125 38.347656 33.003906 C 38.664062 32.714844 38.796875 32.347656 38.734375 31.914062 C 38.675781 31.5 38.46875 31.195312 38.101562 31 C 37.765625 30.820312 37.40625 30.757812 37.03125 30.757812 C 36.386719 30.757812 35.742188 30.765625 35.097656 30.769531 C 34.875 30.769531 34.652344 30.75 34.429688 30.75 C 34.386719 30.746094 34.320312 30.757812 34.304688 30.789062 C 34.25 30.867188 34.21875 30.957031 34.183594 31.042969 C 34.160156 31.09375 34.179688 31.121094 34.238281 31.128906 C 34.394531 31.148438 34.550781 31.175781 34.707031 31.199219 C 34.921875 31.230469 35.023438 31.34375 35.039062 31.558594 L 35.039062 31.6875 C 35.039062 32.363281 35.042969 33.035156 35.039062 33.707031 C 35.035156 34.382812 35.027344 35.054688 35.019531 35.726562 C 35.019531 35.8125 35.007812 35.894531 34.996094 35.980469 C 34.976562 36.105469 34.910156 36.195312 34.78125 36.222656 L 34.414062 36.292969 C 34.367188 36.304688 34.304688 36.300781 34.289062 36.328125 C 34.21875 36.429688 34.167969 36.539062 34.171875 36.671875 L 34.210938 36.683594 L 35.445312 36.714844 L 35.695312 36.710938 C 36.121094 36.707031 36.550781 36.714844 36.976562 36.695312 C 37.4375 36.671875 37.875 36.535156 38.273438 36.296875 C 38.703125 36.046875 39.03125 35.714844 39.148438 35.214844 C 39.222656 34.898438 39.222656 34.578125 39.09375 34.269531 Z M 35.957031 31.402344 C 35.960938 31.265625 36.019531 31.207031 36.152344 31.203125 C 36.484375 31.195312 36.8125 31.195312 37.132812 31.308594 C 37.546875 31.457031 37.800781 31.8125 37.792969 32.25 C 37.792969 32.417969 37.796875 32.582031 37.734375 32.742188 C 37.613281 33.058594 37.378906 33.226562 37.046875 33.257812 C 36.875 33.277344 36.703125 33.277344 36.546875 33.285156 L 36.035156 33.261719 C 35.964844 33.261719 35.9375 33.230469 35.9375 33.160156 Z M 38.085938 35.617188 C 37.917969 35.976562 37.617188 36.167969 37.242188 36.230469 C 36.9375 36.285156 36.632812 36.269531 36.335938 36.191406 C 36.117188 36.136719 36.027344 35.957031 35.980469 35.761719 C 35.953125 35.628906 35.957031 35.472656 35.953125 35.335938 C 35.949219 35.125 35.953125 34.6875 35.953125 34.6875 L 35.949219 34.6875 C 35.949219 34.375 35.949219 34.105469 35.949219 33.804688 C 35.949219 33.738281 35.960938 33.707031 36.039062 33.710938 C 36.320312 33.71875 36.601562 33.722656 36.882812 33.734375 C 37.132812 33.742188 37.367188 33.820312 37.585938 33.9375 C 37.925781 34.117188 38.125 34.394531 38.183594 34.777344 C 38.226562 35.066406 38.207031 35.351562 38.085938 35.617188 Z M 7.277344 35.953125 L 7.28125 34.253906 C 7.28125 34 7.25 33.75 7.167969 33.507812 C 6.933594 32.839844 6.296875 32.535156 5.636719 32.773438 C 5.332031 32.882812 5.0625 33.050781 4.804688 33.238281 C 4.65625 33.347656 4.65625 33.347656 4.546875 33.191406 C 4.238281 32.75 3.796875 32.597656 3.285156 32.761719 C 2.957031 32.867188 2.667969 33.046875 2.390625 33.253906 C 2.367188 33.273438 2.316406 33.296875 2.300781 33.285156 C 2.273438 33.265625 2.257812 33.21875 2.257812 33.183594 L 2.277344 32.882812 C 2.277344 32.820312 2.265625 32.757812 2.257812 32.6875 C 2.136719 32.730469 2.035156 32.773438 1.933594 32.800781 C 1.613281 32.878906 1.292969 32.949219 0.96875 33.023438 C 0.890625 33.042969 0.808594 33.066406 0.800781 33.152344 C 0.792969 33.242188 0.878906 33.257812 0.945312 33.28125 C 1.082031 33.339844 1.21875 33.398438 1.355469 33.457031 C 1.472656 33.507812 1.515625 33.601562 1.515625 33.722656 C 1.511719 34.25 1.515625 34.773438 1.511719 35.300781 C 1.511719 35.515625 1.5 35.730469 1.492188 35.945312 C 1.480469 36.132812 1.417969 36.210938 1.234375 36.261719 C 1.136719 36.285156 1.039062 36.304688 0.9375 36.328125 C 0.917969 36.332031 0.878906 36.34375 0.878906 36.355469 C 0.875 36.449219 0.871094 36.542969 0.886719 36.632812 C 0.890625 36.648438 0.988281 36.648438 1.042969 36.65625 L 1.078125 36.65625 C 1.457031 36.648438 1.835938 36.644531 2.214844 36.640625 C 2.417969 36.636719 2.617188 36.636719 2.835938 36.636719 L 2.859375 36.335938 C 2.734375 36.3125 2.621094 36.296875 2.511719 36.269531 C 2.339844 36.234375 2.265625 36.144531 2.261719 35.96875 L 2.261719 35.722656 C 2.257812 35.078125 2.253906 34.4375 2.253906 33.792969 C 2.253906 33.699219 2.292969 33.625 2.375 33.570312 C 2.550781 33.453125 2.734375 33.359375 2.9375 33.308594 C 3.367188 33.199219 3.738281 33.351562 3.902344 33.714844 C 3.957031 33.828125 3.996094 33.957031 4.007812 34.082031 C 4.070312 34.726562 4.042969 35.371094 4.007812 36.015625 C 4 36.15625 3.933594 36.226562 3.796875 36.257812 L 3.472656 36.328125 C 3.445312 36.332031 3.410156 36.316406 3.40625 36.335938 C 3.398438 36.425781 3.40625 36.5625 3.40625 36.5625 L 3.480469 36.5625 L 4.464844 36.59375 C 4.730469 36.59375 5 36.628906 5.269531 36.632812 C 5.320312 36.636719 5.359375 36.640625 5.363281 36.585938 C 5.367188 36.5 5.363281 36.414062 5.359375 36.328125 L 5.308594 36.320312 L 5.03125 36.257812 C 4.847656 36.210938 4.78125 36.140625 4.78125 35.953125 C 4.777344 35.488281 4.785156 35.023438 4.78125 34.558594 C 4.777344 34.292969 4.769531 34.023438 4.75 33.761719 C 4.746094 33.6875 4.757812 33.644531 4.8125 33.601562 C 4.980469 33.484375 5.160156 33.394531 5.355469 33.34375 C 5.960938 33.183594 6.453125 33.515625 6.484375 34.136719 C 6.515625 34.738281 6.503906 35.34375 6.5 35.945312 C 6.496094 36.15625 6.429688 36.21875 6.222656 36.273438 L 6.152344 36.292969 C 5.9375 36.34375 5.941406 36.34375 5.953125 36.570312 C 5.957031 36.640625 5.976562 36.65625 6.050781 36.65625 C 6.484375 36.644531 6.914062 36.644531 7.34375 36.640625 C 7.519531 36.636719 7.695312 36.640625 7.890625 36.640625 L 7.929688 36.347656 C 7.757812 36.300781 7.605469 36.269531 7.453125 36.21875 C 7.320312 36.175781 7.273438 36.09375 7.277344 35.953125 Z M 22.117188 33.378906 C 22.292969 33.214844 22.292969 32.996094 22.246094 32.753906 C 22.105469 32.902344 21.945312 32.96875 21.765625 32.984375 C 21.527344 33 21.289062 32.980469 21.066406 32.882812 C 20.457031 32.625 19.859375 32.640625 19.265625 32.925781 C 18.765625 33.167969 18.457031 33.542969 18.425781 34.109375 C 18.40625 34.472656 18.472656 34.816406 18.714844 35.105469 C 18.863281 35.277344 19.046875 35.390625 19.257812 35.46875 C 19.347656 35.5 19.355469 35.542969 19.28125 35.601562 C 19.222656 35.644531 19.164062 35.683594 19.105469 35.722656 C 18.980469 35.800781 18.851562 35.878906 18.722656 35.957031 C 18.648438 36.003906 18.621094 36.0625 18.648438 36.148438 C 18.71875 36.410156 18.90625 36.5625 19.136719 36.671875 L 19.222656 36.730469 L 19.148438 36.804688 C 18.921875 36.992188 18.683594 37.164062 18.464844 37.359375 C 18.28125 37.527344 18.222656 37.746094 18.277344 37.988281 C 18.390625 38.476562 18.710938 38.777344 19.167969 38.914062 C 19.96875 39.15625 20.71875 39.019531 21.402344 38.542969 C 21.808594 38.261719 22.097656 37.898438 22.1875 37.394531 C 22.285156 36.828125 21.972656 36.339844 21.410156 36.238281 C 21.039062 36.171875 20.65625 36.152344 20.28125 36.109375 C 20.105469 36.085938 19.929688 36.074219 19.757812 36.035156 C 19.613281 36 19.539062 35.882812 19.554688 35.765625 C 19.566406 35.652344 19.6875 35.546875 19.824219 35.535156 C 20.105469 35.515625 20.378906 35.46875 20.632812 35.351562 C 21.316406 35.042969 21.632812 34.496094 21.550781 33.761719 C 21.542969 33.664062 21.519531 33.566406 21.5 33.453125 C 21.714844 33.488281 21.9375 33.542969 22.117188 33.378906 Z M 20.050781 36.820312 C 20.328125 36.832031 20.640625 36.847656 20.945312 36.9375 C 21.214844 37.015625 21.433594 37.152344 21.5 37.449219 C 21.578125 37.8125 21.40625 38.171875 21.054688 38.363281 C 20.726562 38.546875 20.371094 38.558594 20.011719 38.523438 C 19.703125 38.492188 19.425781 38.382812 19.203125 38.15625 C 18.910156 37.855469 18.90625 37.441406 19.199219 37.140625 C 19.464844 36.875 19.601562 36.816406 20.050781 36.820312 Z M 20.742188 34.648438 C 20.582031 35.164062 20.113281 35.234375 19.746094 35.070312 C 19.429688 34.929688 19.296875 34.652344 19.222656 34.335938 C 19.195312 34.214844 19.1875 34.089844 19.171875 33.964844 C 19.179688 33.789062 19.207031 33.617188 19.285156 33.457031 C 19.519531 32.964844 20.097656 32.992188 20.414062 33.21875 C 20.550781 33.3125 20.648438 33.441406 20.707031 33.597656 C 20.839844 33.941406 20.851562 34.292969 20.742188 34.648438 Z M 17.816406 36.292969 C 17.703125 36.273438 17.59375 36.25 17.484375 36.21875 C 17.296875 36.160156 17.273438 36.125 17.269531 35.921875 C 17.265625 35.363281 17.261719 34.804688 17.253906 34.242188 C 17.25 33.992188 17.222656 33.742188 17.144531 33.503906 C 16.941406 32.867188 16.320312 32.527344 15.695312 32.714844 C 15.351562 32.820312 15.054688 33.011719 14.777344 33.238281 L 14.679688 33.316406 L 14.679688 33.210938 C 14.683594 33.09375 14.699219 32.976562 14.695312 32.855469 C 14.695312 32.792969 14.671875 32.730469 14.660156 32.675781 C 14.425781 32.746094 14.214844 32.820312 14 32.871094 C 13.785156 32.925781 13.5625 32.964844 13.34375 33.007812 C 13.234375 33.03125 13.15625 33.097656 13.160156 33.171875 C 13.160156 33.277344 13.25 33.296875 13.324219 33.328125 C 13.460938 33.382812 13.601562 33.441406 13.738281 33.503906 C 13.835938 33.546875 13.875 33.625 13.875 33.730469 C 13.867188 34.457031 13.863281 35.1875 13.851562 35.914062 C 13.847656 36.144531 13.789062 36.207031 13.5625 36.257812 L 13.464844 36.277344 C 13.257812 36.3125 13.25 36.320312 13.265625 36.542969 L 13.265625 36.578125 C 13.261719 36.664062 13.300781 36.691406 13.386719 36.6875 C 13.945312 36.683594 14.5 36.679688 15.058594 36.683594 C 15.296875 36.683594 15.320312 36.664062 15.316406 36.417969 L 15.304688 36.3125 C 15.167969 36.289062 15.039062 36.273438 14.910156 36.246094 C 14.777344 36.214844 14.730469 36.160156 14.71875 36.027344 C 14.707031 35.902344 14.703125 35.777344 14.699219 35.652344 C 14.695312 35.078125 14.6875 34.507812 14.6875 33.933594 C 14.6875 33.789062 14.710938 33.65625 14.84375 33.5625 C 15.046875 33.425781 15.265625 33.34375 15.507812 33.328125 C 16.003906 33.292969 16.382812 33.585938 16.410156 34.082031 C 16.441406 34.691406 16.433594 35.304688 16.441406 35.914062 C 16.441406 35.960938 16.433594 36.007812 16.425781 36.050781 C 16.414062 36.140625 16.371094 36.207031 16.28125 36.230469 C 16.191406 36.253906 16.101562 36.277344 16.011719 36.289062 C 15.875 36.308594 15.875 36.308594 15.863281 36.445312 L 15.867188 36.535156 C 15.882812 36.695312 15.882812 36.6875 16.042969 36.6875 C 16.582031 36.683594 17.121094 36.679688 17.65625 36.679688 C 17.882812 36.683594 17.898438 36.671875 17.898438 36.4375 L 17.898438 36.382812 C 17.902344 36.324219 17.875 36.300781 17.816406 36.292969 Z M 25.332031 32.753906 C 24.765625 32.613281 24.234375 32.71875 23.722656 32.980469 C 23.230469 33.234375 22.902344 33.628906 22.773438 34.175781 C 22.648438 34.726562 22.707031 35.265625 22.953125 35.773438 C 23.109375 36.109375 23.355469 36.363281 23.6875 36.53125 C 24.464844 36.921875 25.414062 36.746094 26.023438 36.222656 C 26.503906 35.808594 26.679688 35.257812 26.691406 34.578125 C 26.683594 34.511719 26.679688 34.378906 26.660156 34.25 C 26.558594 33.507812 26.042969 32.925781 25.332031 32.753906 Z M 25.757812 35.613281 C 25.609375 36.203125 25.097656 36.464844 24.523438 36.261719 C 24.230469 36.160156 24.011719 35.960938 23.863281 35.695312 C 23.523438 35.082031 23.460938 34.433594 23.652344 33.765625 C 23.78125 33.320312 24.148438 33.074219 24.582031 33.105469 C 24.972656 33.132812 25.273438 33.320312 25.492188 33.636719 C 25.722656 33.972656 25.8125 34.351562 25.835938 34.75 C 25.839844 34.816406 25.835938 34.878906 25.835938 34.945312 L 25.863281 34.945312 C 25.828125 35.167969 25.8125 35.398438 25.757812 35.613281 Z M 11.144531 32.742188 C 10.550781 32.609375 9.996094 32.742188 9.480469 33.042969 C 9.035156 33.304688 8.746094 33.691406 8.636719 34.203125 C 8.535156 34.675781 8.574219 35.144531 8.746094 35.601562 C 8.847656 35.878906 9.003906 36.121094 9.230469 36.3125 C 9.710938 36.710938 10.269531 36.8125 10.867188 36.703125 C 11.371094 36.605469 11.816406 36.382812 12.136719 35.960938 C 12.441406 35.570312 12.554688 35.121094 12.566406 34.632812 C 12.550781 34.476562 12.542969 34.320312 12.511719 34.167969 C 12.347656 33.414062 11.90625 32.917969 11.144531 32.742188 Z M 11.628906 35.613281 C 11.484375 36.199219 10.964844 36.464844 10.394531 36.265625 C 10.027344 36.132812 9.789062 35.867188 9.640625 35.519531 C 9.398438 34.96875 9.347656 34.394531 9.503906 33.808594 C 9.625 33.363281 9.984375 33.035156 10.539062 33.113281 C 10.878906 33.164062 11.144531 33.335938 11.34375 33.613281 C 11.609375 33.984375 11.695312 34.410156 11.707031 34.859375 L 11.707031 34.949219 L 11.730469 34.953125 C 11.699219 35.171875 11.683594 35.398438 11.628906 35.613281 Z M 11.628906 35.613281 "/>
</g>
</svg>
