<?xml version="1.0" encoding="UTF-8"?>
<svg xmlns="http://www.w3.org/2000/svg" xmlns:xlink="http://www.w3.org/1999/xlink" width="40px" height="150px" viewBox="0 0 40 40" version="1.1">
<g id="surface1">
<path style=" stroke:none;fill-rule:evenodd;fill:rgb(58.039218%,47.450981%,36.470589%);fill-opacity:1;" d="M 27.269531 31.292969 C 27.320312 31.191406 27.371094 31.101562 27.414062 31.007812 C 27.441406 30.949219 27.484375 30.9375 27.542969 30.941406 C 27.898438 30.949219 28.25 30.960938 28.605469 30.964844 C 28.90625 30.96875 29.207031 30.960938 29.507812 30.957031 C 29.847656 30.953125 30.1875 30.9375 30.527344 30.945312 C 30.980469 30.960938 31.417969 31.046875 31.828125 31.25 C 32.316406 31.488281 32.683594 31.855469 32.9375 32.335938 C 33.097656 32.644531 33.1875 32.972656 33.226562 33.316406 C 33.28125 33.820312 33.246094 34.3125 33.085938 34.792969 C 32.886719 35.386719 32.511719 35.84375 31.992188 36.183594 C 31.589844 36.449219 31.152344 36.601562 30.679688 36.691406 C 30.179688 36.785156 29.679688 36.757812 29.179688 36.757812 C 28.632812 36.757812 28.082031 36.746094 27.535156 36.742188 C 27.4375 36.742188 27.425781 36.722656 27.449219 36.632812 L 27.472656 36.546875 C 27.527344 36.378906 27.554688 36.371094 27.726562 36.34375 C 27.84375 36.324219 27.96875 36.28125 28.066406 36.214844 C 28.125 36.175781 28.148438 36.078125 28.171875 36 C 28.191406 35.933594 28.191406 35.859375 28.191406 35.789062 C 28.199219 34.71875 28.207031 33.648438 28.210938 32.578125 C 28.210938 32.308594 28.207031 32.039062 28.191406 31.765625 C 28.179688 31.578125 28.078125 31.449219 27.855469 31.40625 C 27.679688 31.371094 27.503906 31.34375 27.328125 31.3125 Z M 32.292969 33.886719 C 32.269531 33.671875 32.257812 33.457031 32.21875 33.246094 C 32.128906 32.742188 31.90625 32.304688 31.519531 31.960938 C 30.894531 31.402344 30.136719 31.316406 29.347656 31.382812 C 29.167969 31.398438 29.128906 31.460938 29.125 31.644531 C 29.121094 31.910156 29.117188 32.171875 29.117188 32.433594 C 29.117188 33.265625 29.117188 34.097656 29.117188 34.929688 C 29.117188 35.167969 29.121094 35.40625 29.125 35.640625 C 29.132812 35.882812 29.222656 36.085938 29.460938 36.179688 C 29.832031 36.328125 30.226562 36.347656 30.617188 36.285156 C 31.242188 36.191406 31.679688 35.824219 31.976562 35.277344 C 32.207031 34.84375 32.273438 34.371094 32.292969 33.886719 Z M 33.8125 36.71875 C 33.804688 36.589844 33.859375 36.484375 33.925781 36.382812 C 33.941406 36.359375 34.003906 36.359375 34.046875 36.351562 L 34.40625 36.28125 C 34.53125 36.253906 34.597656 36.167969 34.617188 36.042969 C 34.628906 35.960938 34.636719 35.878906 34.640625 35.796875 C 34.648438 35.140625 34.65625 34.484375 34.65625 33.832031 C 34.660156 33.175781 34.660156 32.519531 34.660156 31.863281 L 34.65625 31.734375 C 34.644531 31.523438 34.539062 31.414062 34.332031 31.386719 L 33.878906 31.316406 C 33.820312 31.308594 33.800781 31.28125 33.820312 31.230469 C 33.855469 31.148438 33.890625 31.058594 33.9375 30.984375 C 33.957031 30.953125 34.019531 30.945312 34.0625 30.945312 C 34.277344 30.949219 34.496094 30.964844 34.710938 30.964844 L 36.601562 30.953125 C 36.964844 30.953125 37.316406 31.015625 37.640625 31.191406 C 38 31.382812 38.203125 31.675781 38.257812 32.082031 C 38.320312 32.503906 38.191406 32.859375 37.882812 33.144531 C 37.753906 33.261719 37.589844 33.335938 37.441406 33.433594 L 37.394531 33.460938 C 37.53125 33.511719 37.660156 33.554688 37.789062 33.609375 C 38.160156 33.761719 38.453125 33.996094 38.609375 34.378906 C 38.734375 34.675781 38.734375 34.988281 38.660156 35.300781 C 38.546875 35.785156 38.226562 36.109375 37.808594 36.355469 C 37.417969 36.585938 36.996094 36.71875 36.546875 36.742188 C 36.128906 36.761719 35.710938 36.753906 35.296875 36.757812 L 35.054688 36.757812 C 34.652344 36.75 34.25 36.742188 33.851562 36.730469 Z M 35.542969 34.816406 L 35.546875 34.816406 C 35.546875 35.023438 35.546875 35.226562 35.550781 35.433594 C 35.550781 35.566406 35.546875 35.703125 35.574219 35.832031 C 35.617188 36.023438 35.707031 36.195312 35.921875 36.25 C 36.210938 36.324219 36.507812 36.339844 36.800781 36.289062 C 37.167969 36.226562 37.464844 36.042969 37.625 35.691406 C 37.742188 35.429688 37.761719 35.15625 37.71875 34.875 C 37.664062 34.5 37.46875 34.234375 37.140625 34.054688 C 36.925781 33.941406 36.695312 33.867188 36.453125 33.859375 C 36.179688 33.847656 35.90625 33.847656 35.628906 33.839844 C 35.554688 33.839844 35.542969 33.878906 35.542969 33.941406 C 35.546875 34.230469 35.542969 34.523438 35.542969 34.816406 Z M 36.125 33.417969 C 36.277344 33.410156 36.445312 33.410156 36.613281 33.390625 C 36.9375 33.359375 37.164062 33.199219 37.28125 32.890625 C 37.34375 32.734375 37.339844 32.570312 37.34375 32.410156 C 37.347656 31.984375 37.097656 31.636719 36.695312 31.492188 C 36.386719 31.382812 36.066406 31.378906 35.742188 31.390625 C 35.613281 31.390625 35.554688 31.449219 35.550781 31.582031 L 35.53125 33.296875 C 35.53125 33.363281 35.558594 33.394531 35.625 33.394531 Z M 36.125 33.417969 "/>
<path style=" stroke:none;fill-rule:evenodd;fill:rgb(31.37255%,21.960784%,16.862746%);fill-opacity:1;" d="M 3.292969 36.390625 L 3.273438 36.683594 C 3.058594 36.683594 2.863281 36.683594 2.667969 36.6875 C 2.296875 36.6875 1.929688 36.695312 1.558594 36.699219 L 1.523438 36.703125 C 1.472656 36.695312 1.375 36.695312 1.375 36.679688 C 1.359375 36.59375 1.363281 36.5 1.367188 36.410156 C 1.367188 36.398438 1.402344 36.386719 1.421875 36.382812 L 1.710938 36.316406 C 1.890625 36.269531 1.953125 36.195312 1.960938 36.007812 C 1.972656 35.800781 1.980469 35.589844 1.980469 35.382812 C 1.984375 34.871094 1.980469 34.359375 1.984375 33.84375 C 1.984375 33.722656 1.941406 33.636719 1.832031 33.585938 C 1.699219 33.527344 1.5625 33.46875 1.429688 33.414062 C 1.367188 33.390625 1.28125 33.375 1.289062 33.289062 C 1.296875 33.203125 1.378906 33.179688 1.453125 33.164062 C 1.765625 33.089844 2.078125 33.023438 2.390625 32.945312 C 2.492188 32.921875 2.589844 32.878906 2.710938 32.835938 C 2.714844 32.902344 2.726562 32.964844 2.726562 33.027344 L 2.707031 33.320312 C 2.707031 33.351562 2.722656 33.398438 2.75 33.417969 C 2.765625 33.429688 2.8125 33.40625 2.839844 33.386719 C 3.105469 33.183594 3.390625 33.007812 3.710938 32.90625 C 4.210938 32.75 4.636719 32.894531 4.9375 33.324219 C 5.042969 33.476562 5.042969 33.476562 5.191406 33.371094 C 5.441406 33.1875 5.707031 33.027344 6 32.921875 C 6.644531 32.6875 7.265625 32.984375 7.492188 33.632812 C 7.574219 33.871094 7.605469 34.113281 7.605469 34.363281 L 7.597656 36.019531 C 7.597656 36.15625 7.644531 36.234375 7.773438 36.277344 C 7.917969 36.324219 8.070312 36.359375 8.234375 36.402344 L 8.195312 36.683594 C 8.011719 36.683594 7.839844 36.683594 7.667969 36.6875 C 7.246094 36.6875 6.828125 36.691406 6.40625 36.703125 C 6.332031 36.703125 6.3125 36.683594 6.3125 36.617188 C 6.296875 36.398438 6.296875 36.398438 6.503906 36.347656 L 6.570312 36.332031 C 6.773438 36.277344 6.839844 36.214844 6.84375 36.007812 C 6.847656 35.421875 6.859375 34.835938 6.828125 34.25 C 6.796875 33.640625 6.316406 33.316406 5.726562 33.472656 C 5.535156 33.523438 5.363281 33.613281 5.199219 33.726562 C 5.144531 33.765625 5.132812 33.8125 5.140625 33.878906 C 5.15625 34.140625 5.164062 34.398438 5.167969 34.65625 C 5.171875 35.109375 5.167969 35.5625 5.167969 36.015625 C 5.167969 36.203125 5.230469 36.273438 5.414062 36.3125 L 5.683594 36.375 L 5.734375 36.386719 C 5.738281 36.472656 5.738281 36.558594 5.734375 36.644531 C 5.734375 36.699219 5.691406 36.703125 5.644531 36.703125 C 5.382812 36.699219 5.121094 36.6875 4.859375 36.6875 C 4.539062 36.691406 4.21875 36.699219 3.902344 36.703125 L 3.828125 36.703125 C 3.828125 36.613281 3.820312 36.527344 3.828125 36.4375 C 3.832031 36.417969 3.867188 36.386719 3.894531 36.382812 L 4.207031 36.316406 C 4.339844 36.28125 4.40625 36.214844 4.414062 36.078125 C 4.449219 35.449219 4.472656 34.820312 4.414062 34.195312 C 4.402344 34.070312 4.363281 33.949219 4.3125 33.835938 C 4.152344 33.480469 3.789062 33.332031 3.371094 33.4375 C 3.171875 33.488281 2.992188 33.582031 2.824219 33.695312 C 2.746094 33.75 2.707031 33.820312 2.707031 33.914062 C 2.707031 34.539062 2.707031 35.164062 2.710938 35.792969 L 2.714844 36.03125 C 2.71875 36.203125 2.789062 36.289062 2.957031 36.328125 C 3.0625 36.351562 3.171875 36.367188 3.292969 36.390625 Z M 3.292969 36.390625 "/>
<path style=" stroke:none;fill-rule:evenodd;fill:rgb(30.980393%,21.960784%,16.862746%);fill-opacity:1;" d="M 22.1875 32.902344 C 22.234375 33.136719 22.234375 33.347656 22.0625 33.507812 C 21.890625 33.667969 21.671875 33.617188 21.460938 33.578125 C 21.480469 33.691406 21.503906 33.785156 21.511719 33.882812 C 21.589844 34.597656 21.28125 35.128906 20.617188 35.433594 C 20.367188 35.546875 20.101562 35.589844 19.832031 35.613281 C 19.695312 35.621094 19.578125 35.726562 19.566406 35.835938 C 19.550781 35.949219 19.621094 36.0625 19.761719 36.097656 C 19.929688 36.136719 20.105469 36.148438 20.273438 36.167969 C 20.640625 36.210938 21.011719 36.230469 21.375 36.296875 C 21.921875 36.394531 22.230469 36.871094 22.132812 37.421875 C 22.046875 37.914062 21.761719 38.269531 21.367188 38.542969 C 20.699219 39.003906 19.96875 39.140625 19.191406 38.90625 C 18.746094 38.769531 18.429688 38.476562 18.324219 38.003906 C 18.269531 37.765625 18.328125 37.550781 18.503906 37.390625 C 18.71875 37.199219 18.949219 37.03125 19.171875 36.847656 L 19.242188 36.777344 L 19.160156 36.71875 C 18.933594 36.613281 18.75 36.464844 18.679688 36.210938 C 18.65625 36.121094 18.683594 36.066406 18.753906 36.019531 C 18.878906 35.945312 19.003906 35.871094 19.128906 35.792969 C 19.1875 35.753906 19.242188 35.71875 19.296875 35.675781 C 19.371094 35.621094 19.367188 35.578125 19.277344 35.546875 C 19.070312 35.46875 18.890625 35.359375 18.75 35.191406 C 18.511719 34.910156 18.445312 34.574219 18.464844 34.21875 C 18.496094 33.667969 18.796875 33.304688 19.285156 33.070312 C 19.863281 32.789062 20.445312 32.773438 21.039062 33.027344 C 21.257812 33.121094 21.488281 33.140625 21.722656 33.125 C 21.898438 33.109375 22.050781 33.046875 22.1875 32.902344 Z M 20.050781 36.863281 C 19.613281 36.859375 19.476562 36.914062 19.222656 37.175781 C 18.933594 37.464844 18.9375 37.871094 19.222656 38.164062 C 19.4375 38.386719 19.710938 38.492188 20.011719 38.523438 C 20.363281 38.558594 20.707031 38.542969 21.027344 38.367188 C 21.367188 38.179688 21.539062 37.828125 21.460938 37.476562 C 21.398438 37.1875 21.183594 37.050781 20.921875 36.976562 C 20.625 36.890625 20.320312 36.871094 20.050781 36.863281 Z M 19.195312 34.082031 C 19.210938 34.203125 19.214844 34.324219 19.242188 34.441406 C 19.3125 34.75 19.445312 35.019531 19.75 35.15625 C 20.109375 35.316406 20.566406 35.246094 20.726562 34.746094 C 20.832031 34.398438 20.820312 34.058594 20.6875 33.722656 C 20.632812 33.570312 20.539062 33.445312 20.40625 33.351562 C 20.09375 33.132812 19.53125 33.105469 19.304688 33.585938 C 19.230469 33.742188 19.199219 33.90625 19.195312 34.082031 Z M 19.195312 34.082031 "/>
<path style=" stroke:none;fill-rule:evenodd;fill:rgb(30.980393%,21.568628%,16.862746%);fill-opacity:1;" d="M 14.796875 32.824219 C 14.808594 32.878906 14.832031 32.9375 14.832031 33 C 14.832031 33.117188 14.820312 33.230469 14.8125 33.347656 L 14.8125 33.449219 L 14.914062 33.371094 C 15.179688 33.152344 15.46875 32.964844 15.804688 32.863281 C 16.414062 32.679688 17.019531 33.011719 17.21875 33.628906 C 17.292969 33.863281 17.320312 34.105469 17.324219 34.351562 C 17.332031 34.898438 17.335938 35.441406 17.339844 35.988281 C 17.34375 36.183594 17.363281 36.21875 17.550781 36.277344 C 17.65625 36.308594 17.761719 36.332031 17.871094 36.347656 C 17.929688 36.355469 17.957031 36.378906 17.953125 36.4375 L 17.953125 36.492188 C 17.953125 36.71875 17.9375 36.726562 17.71875 36.726562 C 17.191406 36.726562 16.667969 36.730469 16.144531 36.734375 C 15.988281 36.734375 15.988281 36.742188 15.972656 36.585938 L 15.96875 36.496094 C 15.980469 36.363281 15.980469 36.367188 16.113281 36.347656 C 16.203125 36.332031 16.289062 36.3125 16.375 36.289062 C 16.464844 36.265625 16.503906 36.203125 16.515625 36.113281 C 16.523438 36.070312 16.53125 36.027344 16.53125 35.980469 C 16.523438 35.386719 16.53125 34.789062 16.5 34.191406 C 16.472656 33.710938 16.105469 33.425781 15.625 33.457031 C 15.386719 33.472656 15.171875 33.554688 14.976562 33.6875 C 14.847656 33.78125 14.820312 33.910156 14.820312 34.050781 C 14.824219 34.609375 14.828125 35.164062 14.835938 35.722656 C 14.835938 35.84375 14.839844 35.96875 14.851562 36.089844 C 14.863281 36.222656 14.910156 36.273438 15.039062 36.304688 C 15.164062 36.332031 15.292969 36.347656 15.425781 36.367188 L 15.4375 36.472656 C 15.441406 36.710938 15.414062 36.726562 15.183594 36.726562 C 14.640625 36.726562 14.097656 36.730469 13.558594 36.734375 C 13.472656 36.734375 13.433594 36.710938 13.4375 36.625 L 13.4375 36.589844 C 13.421875 36.375 13.429688 36.367188 13.632812 36.332031 L 13.726562 36.3125 C 13.949219 36.261719 14.003906 36.203125 14.007812 35.980469 C 14.019531 35.269531 14.023438 34.5625 14.03125 33.851562 C 14.03125 33.75 13.992188 33.671875 13.898438 33.628906 C 13.765625 33.570312 13.628906 33.511719 13.496094 33.457031 C 13.421875 33.425781 13.335938 33.40625 13.332031 33.304688 C 13.332031 33.234375 13.410156 33.167969 13.515625 33.148438 C 13.726562 33.105469 13.941406 33.066406 14.152344 33.015625 C 14.363281 32.964844 14.566406 32.894531 14.796875 32.824219 Z M 14.796875 32.824219 "/>
<path style=" stroke:none;fill-rule:evenodd;fill:rgb(30.980393%,21.960784%,16.862746%);fill-opacity:1;" d="M 26.519531 34.679688 C 26.511719 35.339844 26.339844 35.875 25.871094 36.277344 C 25.277344 36.789062 24.347656 36.960938 23.59375 36.582031 C 23.269531 36.417969 23.03125 36.167969 22.875 35.84375 C 22.640625 35.347656 22.582031 34.820312 22.703125 34.285156 C 22.828125 33.753906 23.148438 33.371094 23.628906 33.121094 C 24.125 32.863281 24.644531 32.765625 25.195312 32.898438 C 25.890625 33.070312 26.390625 33.636719 26.488281 34.359375 C 26.507812 34.484375 26.515625 34.613281 26.519531 34.679688 Z M 25.714844 35.039062 L 25.6875 35.035156 C 25.6875 34.972656 25.691406 34.910156 25.6875 34.847656 C 25.664062 34.457031 25.578125 34.085938 25.351562 33.761719 C 25.136719 33.453125 24.847656 33.269531 24.464844 33.242188 C 24.042969 33.210938 23.683594 33.449219 23.558594 33.882812 C 23.371094 34.535156 23.433594 35.171875 23.765625 35.765625 C 23.910156 36.027344 24.125 36.21875 24.410156 36.320312 C 24.96875 36.515625 25.464844 36.261719 25.613281 35.6875 C 25.667969 35.476562 25.683594 35.253906 25.714844 35.039062 Z M 25.714844 35.039062 "/>
<path style=" stroke:none;fill-rule:evenodd;fill:rgb(30.980393%,21.568628%,16.862746%);fill-opacity:1;" d="M 12.757812 34.730469 C 12.746094 35.203125 12.632812 35.644531 12.339844 36.027344 C 12.023438 36.4375 11.589844 36.65625 11.097656 36.746094 C 10.519531 36.855469 9.972656 36.757812 9.503906 36.367188 C 9.28125 36.179688 9.132812 35.945312 9.03125 35.671875 C 8.867188 35.230469 8.824219 34.773438 8.925781 34.3125 C 9.035156 33.816406 9.316406 33.4375 9.75 33.179688 C 10.25 32.886719 10.792969 32.757812 11.371094 32.890625 C 12.113281 33.058594 12.542969 33.542969 12.703125 34.277344 C 12.734375 34.425781 12.738281 34.578125 12.757812 34.730469 Z M 11.941406 35.042969 L 11.921875 35.039062 L 11.921875 34.949219 C 11.90625 34.515625 11.824219 34.097656 11.5625 33.734375 C 11.371094 33.46875 11.109375 33.296875 10.78125 33.25 C 10.242188 33.175781 9.886719 33.496094 9.773438 33.929688 C 9.617188 34.496094 9.667969 35.058594 9.902344 35.597656 C 10.050781 35.933594 10.28125 36.195312 10.640625 36.320312 C 11.195312 36.519531 11.699219 36.257812 11.84375 35.683594 C 11.894531 35.476562 11.910156 35.257812 11.941406 35.042969 Z M 11.941406 35.042969 "/>
<path style=" stroke:none;fill-rule:evenodd;fill:rgb(26.274511%,60.000002%,20.392157%);fill-opacity:1;" d="M 25.738281 10.484375 C 26.121094 11.589844 26.398438 12.722656 26.488281 13.894531 C 26.601562 15.351562 26.550781 16.796875 26.242188 18.226562 L 26.203125 18.339844 C 26.105469 18.339844 26.007812 18.328125 25.914062 18.34375 C 25.121094 18.46875 24.328125 18.597656 23.53125 18.726562 C 22.710938 18.859375 21.890625 18.988281 21.070312 19.128906 C 20.78125 19.179688 20.421875 19.121094 20.304688 19.519531 L 20.246094 19.539062 L 20.285156 17.140625 L 20.246094 11.351562 L 20.628906 11.285156 C 21.253906 11.183594 21.878906 11.078125 22.507812 10.980469 C 23.253906 10.859375 24 10.746094 24.746094 10.628906 C 25.078125 10.578125 25.40625 10.53125 25.738281 10.484375 Z M 25.738281 10.484375 "/>
<path style=" stroke:none;fill-rule:evenodd;fill:rgb(27.058825%,64.705884%,21.960784%);fill-opacity:1;" d="M 19.457031 26.535156 C 19.054688 26.1875 18.636719 25.855469 18.25 25.492188 C 16.167969 23.527344 14.648438 21.21875 13.898438 18.433594 C 13.691406 17.667969 13.554688 16.886719 13.507812 16.097656 C 13.476562 15.542969 13.433594 14.984375 13.472656 14.429688 C 13.578125 12.964844 13.789062 11.511719 14.21875 10.097656 L 14.242188 10.066406 C 14.285156 10.121094 14.34375 10.171875 14.367188 10.234375 C 14.785156 11.46875 15.203125 12.707031 15.617188 13.945312 C 16.921875 17.835938 18.222656 21.730469 19.527344 25.621094 C 19.550781 25.695312 19.617188 25.757812 19.664062 25.824219 Z M 19.457031 26.535156 "/>
<path style=" stroke:none;fill-rule:evenodd;fill:rgb(27.450982%,62.7451%,21.568628%);fill-opacity:1;" d="M 25.738281 10.484375 C 25.40625 10.53125 25.078125 10.578125 24.746094 10.628906 C 24 10.746094 23.253906 10.859375 22.507812 10.980469 C 21.878906 11.078125 21.253906 11.183594 20.628906 11.285156 L 20.246094 11.351562 L 20.242188 11.101562 C 20.230469 10.898438 20.210938 10.691406 20.207031 10.488281 L 20.164062 6.5625 C 20.152344 5.746094 20.140625 4.925781 20.121094 4.109375 C 20.113281 3.601562 20.101562 3.089844 20.078125 2.582031 C 20.066406 2.3125 20.023438 2.039062 20.003906 1.765625 C 19.992188 1.609375 20.007812 1.453125 20.011719 1.292969 C 20.207031 1.671875 20.398438 2.050781 20.597656 2.425781 C 20.914062 3.019531 21.417969 3.457031 21.875 3.933594 C 23.667969 5.816406 24.945312 8.007812 25.738281 10.484375 Z M 25.738281 10.484375 "/>
<path style=" stroke:none;fill-rule:evenodd;fill:rgb(25.098041%,58.039218%,20%);fill-opacity:1;" d="M 20.246094 19.539062 L 20.304688 19.519531 C 20.421875 19.121094 20.78125 19.179688 21.070312 19.128906 C 21.890625 18.988281 22.710938 18.859375 23.53125 18.726562 C 24.328125 18.597656 25.121094 18.46875 25.914062 18.34375 C 26.007812 18.328125 26.105469 18.339844 26.203125 18.339844 C 26.054688 18.871094 25.9375 19.410156 25.75 19.925781 C 25.535156 20.511719 25.277344 21.082031 25.003906 21.640625 C 24.589844 22.476562 24.078125 23.257812 23.484375 23.972656 C 23.027344 24.523438 22.515625 25.03125 22.003906 25.535156 C 21.722656 25.8125 21.390625 26.039062 21.078125 26.289062 L 20.996094 26.234375 L 20.707031 25.988281 L 20.410156 25.328125 C 20.203125 24.558594 20.09375 23.777344 20.074219 22.980469 L 20.082031 22.847656 L 20.121094 22.269531 C 20.136719 22.070312 20.152344 21.871094 20.164062 21.675781 C 20.191406 20.964844 20.21875 20.25 20.246094 19.539062 Z M 20.246094 19.539062 "/>
<path style=" stroke:none;fill-rule:evenodd;fill:rgb(30.980393%,66.666669%,25.490198%);fill-opacity:1;" d="M 20.246094 19.539062 C 20.21875 20.25 20.191406 20.964844 20.164062 21.675781 C 20.152344 21.875 20.136719 22.070312 20.121094 22.269531 L 19.941406 22.335938 C 19.535156 21.144531 19.128906 19.960938 18.730469 18.777344 C 18.074219 16.816406 17.425781 14.855469 16.769531 12.894531 C 16.242188 11.3125 15.707031 9.734375 15.171875 8.152344 C 15.144531 8.078125 15.074219 8.019531 15.023438 7.957031 L 16.191406 5.804688 C 16.234375 5.875 16.285156 5.941406 16.3125 6.015625 C 16.851562 7.617188 17.390625 9.21875 17.925781 10.820312 C 18.621094 12.902344 19.3125 14.988281 20.011719 17.074219 C 20.039062 17.15625 20.082031 17.234375 20.128906 17.328125 L 20.289062 17.140625 C 20.273438 17.941406 20.261719 18.738281 20.246094 19.539062 Z M 20.246094 19.539062 "/>
<path style=" stroke:none;fill-rule:evenodd;fill:rgb(29.019609%,65.490198%,23.529412%);fill-opacity:1;" d="M 15.023438 7.957031 C 15.074219 8.019531 15.144531 8.078125 15.171875 8.152344 C 15.707031 9.734375 16.242188 11.3125 16.769531 12.894531 C 17.425781 14.855469 18.074219 16.816406 18.730469 18.777344 C 19.128906 19.960938 19.535156 21.144531 19.9375 22.335938 L 20.121094 22.269531 L 20.082031 22.847656 L 20.042969 22.980469 C 19.980469 23.617188 19.925781 24.25 19.847656 24.882812 C 19.8125 25.199219 19.726562 25.511719 19.664062 25.824219 C 19.617188 25.757812 19.550781 25.695312 19.527344 25.621094 C 18.21875 21.730469 16.917969 17.835938 15.617188 13.945312 C 15.203125 12.707031 14.785156 11.46875 14.367188 10.234375 C 14.34375 10.171875 14.285156 10.121094 14.242188 10.066406 Z M 15.023438 7.957031 "/>
<path style=" stroke:none;fill-rule:evenodd;fill:rgb(34.117648%,68.235296%,27.843139%);fill-opacity:1;" d="M 20.285156 17.140625 L 20.125 17.328125 C 20.082031 17.234375 20.039062 17.15625 20.007812 17.074219 C 19.3125 14.988281 18.621094 12.902344 17.925781 10.820312 C 17.390625 9.21875 16.851562 7.617188 16.3125 6.015625 C 16.285156 5.941406 16.234375 5.875 16.191406 5.804688 L 17.636719 3.90625 C 17.683594 3.964844 17.75 4.019531 17.773438 4.089844 C 18.171875 5.261719 18.570312 6.4375 18.964844 7.617188 C 19.335938 8.714844 19.699219 9.816406 20.074219 10.914062 C 20.097656 10.988281 20.183594 11.039062 20.242188 11.101562 L 20.246094 11.351562 Z M 20.285156 17.140625 "/>
<path style=" stroke:none;fill-rule:evenodd;fill:rgb(37.64706%,69.803923%,30.980393%);fill-opacity:1;" d="M 20.242188 11.101562 C 20.183594 11.039062 20.097656 10.988281 20.074219 10.914062 C 19.699219 9.816406 19.335938 8.714844 18.964844 7.617188 C 18.570312 6.4375 18.171875 5.261719 17.773438 4.089844 C 17.75 4.019531 17.683594 3.964844 17.636719 3.90625 C 18.109375 3.445312 18.5625 2.96875 19.050781 2.527344 C 19.488281 2.140625 19.835938 1.722656 19.851562 1.105469 L 19.886719 0.980469 L 20.011719 1.292969 C 20.007812 1.449219 19.992188 1.609375 20.003906 1.765625 C 20.023438 2.039062 20.066406 2.308594 20.078125 2.582031 C 20.101562 3.089844 20.113281 3.601562 20.121094 4.109375 C 20.136719 4.925781 20.152344 5.746094 20.164062 6.5625 L 20.207031 10.484375 C 20.210938 10.691406 20.230469 10.898438 20.242188 11.101562 Z M 20.242188 11.101562 "/>
<path style=" stroke:none;fill-rule:evenodd;fill:rgb(66.274512%,66.666669%,53.333336%);fill-opacity:1;" d="M 19.664062 25.824219 C 19.726562 25.511719 19.8125 25.199219 19.851562 24.882812 C 19.925781 24.25 19.980469 23.617188 20.042969 22.980469 L 20.074219 22.980469 C 20.09375 23.777344 20.203125 24.5625 20.410156 25.332031 C 20.367188 25.386719 20.308594 25.433594 20.285156 25.496094 C 20.109375 25.988281 19.949219 26.480469 19.773438 26.96875 C 19.75 27.035156 19.683594 27.089844 19.636719 27.148438 L 19.457031 26.535156 Z M 19.664062 25.824219 "/>
<path style=" stroke:none;fill-rule:evenodd;fill:rgb(71.372551%,70.980394%,59.607846%);fill-opacity:1;" d="M 19.636719 27.148438 C 19.683594 27.089844 19.75 27.035156 19.773438 26.96875 C 19.949219 26.480469 20.109375 25.988281 20.285156 25.496094 C 20.308594 25.433594 20.367188 25.386719 20.410156 25.332031 L 20.707031 25.988281 C 20.648438 26.070312 20.566406 26.148438 20.535156 26.242188 L 19.960938 27.925781 C 19.9375 27.992188 19.855469 28.042969 19.800781 28.097656 Z M 19.636719 27.148438 "/>
<path style=" stroke:none;fill-rule:evenodd;fill:rgb(76.078433%,75.686276%,65.490198%);fill-opacity:1;" d="M 19.800781 28.097656 C 19.855469 28.042969 19.9375 27.992188 19.960938 27.925781 L 20.535156 26.242188 C 20.566406 26.148438 20.648438 26.070312 20.707031 25.988281 L 21 26.234375 C 20.859375 26.375 20.78125 26.535156 20.828125 26.734375 L 20.738281 27.023438 C 20.699219 27.074219 20.640625 27.117188 20.621094 27.171875 C 20.421875 27.746094 20.230469 28.324219 20.027344 28.898438 C 20.003906 28.96875 19.929688 29.027344 19.882812 29.089844 Z M 19.800781 28.097656 "/>
<path style=" stroke:none;fill-rule:evenodd;fill:rgb(80.784315%,80.392158%,71.764708%);fill-opacity:1;" d="M 19.882812 29.089844 C 19.929688 29.027344 20.003906 28.96875 20.027344 28.898438 C 20.230469 28.324219 20.421875 27.746094 20.621094 27.171875 C 20.640625 27.117188 20.699219 27.074219 20.738281 27.023438 L 20.617188 28.347656 C 20.585938 28.386719 20.539062 28.417969 20.523438 28.460938 L 20.117188 29.621094 C 20.089844 29.699219 20.035156 29.769531 19.992188 29.84375 C 19.953125 29.792969 19.886719 29.746094 19.882812 29.695312 C 19.871094 29.496094 19.878906 29.292969 19.882812 29.089844 Z M 19.882812 29.089844 "/>
<path style=" stroke:none;fill-rule:evenodd;fill:rgb(85.882354%,85.490197%,78.039217%);fill-opacity:1;" d="M 19.992188 29.84375 C 20.035156 29.769531 20.089844 29.699219 20.117188 29.621094 L 20.523438 28.460938 C 20.539062 28.417969 20.585938 28.386719 20.617188 28.347656 L 20.621094 29.214844 L 20.328125 29.960938 Z M 19.992188 29.84375 "/>
<path style=" stroke:none;fill-rule:evenodd;fill:rgb(92.156863%,91.37255%,86.274511%);fill-opacity:1;" d="M 20.328125 29.960938 L 20.621094 29.214844 L 20.679688 30.097656 Z M 20.328125 29.960938 "/>
<path style=" stroke:none;fill-rule:evenodd;fill:rgb(80.784315%,80.392158%,71.764708%);fill-opacity:1;" d="M 20.828125 26.734375 C 20.78125 26.535156 20.859375 26.375 20.996094 26.234375 L 21.078125 26.289062 Z M 20.828125 26.734375 "/>
<path style=" stroke:none;fill-rule:evenodd;fill:rgb(30.980393%,66.666669%,25.490198%);fill-opacity:1;" d="M 20.074219 22.980469 L 20.042969 22.980469 L 20.082031 22.847656 Z M 20.074219 22.980469 "/>
</g>
</svg>
