<?xml version="1.0" encoding="UTF-8"?>
<svg xmlns="http://www.w3.org/2000/svg" xmlns:xlink="http://www.w3.org/1999/xlink" width="40px" height="45px" viewBox="0 0 40 45" version="1.1">
<g id="surface1">
<path style=" stroke:none;fill-rule:nonzero;fill:rgb(32.549021%,61.960787%,26.274511%);fill-opacity:1;" d="M 20 44.917969 C 19.378906 44.917969 18.800781 44.75 18.261719 44.460938 L 12.753906 41.203125 C 11.925781 40.75 12.339844 40.582031 12.589844 40.5 C 13.707031 40.128906 13.914062 40.046875 15.074219 39.386719 C 15.195312 39.304688 15.363281 39.347656 15.488281 39.429688 L 19.710938 41.945312 C 19.875 42.027344 20.082031 42.027344 20.207031 41.945312 L 36.730469 32.414062 C 36.894531 32.332031 36.976562 32.164062 36.976562 31.960938 L 36.976562 12.9375 C 36.976562 12.730469 36.894531 12.566406 36.730469 12.484375 L 20.207031 2.992188 C 20.042969 2.910156 19.835938 2.910156 19.710938 2.992188 L 3.1875 12.484375 C 3.023438 12.566406 2.941406 12.769531 2.941406 12.9375 L 2.941406 31.960938 C 2.941406 32.125 3.023438 32.332031 3.1875 32.414062 L 7.703125 35.011719 C 10.144531 36.25 11.675781 34.808594 11.675781 33.363281 L 11.675781 14.585938 C 11.675781 14.339844 11.882812 14.09375 12.175781 14.09375 L 14.285156 14.09375 C 14.535156 14.09375 14.78125 14.296875 14.78125 14.585938 L 14.78125 33.363281 C 14.78125 36.621094 13.003906 38.519531 9.894531 38.519531 C 8.945312 38.519531 8.199219 38.519531 6.085938 37.488281 L 1.738281 35.011719 C 0.664062 34.394531 0 33.238281 0 32 L 0 12.976562 C 0 11.738281 0.664062 10.585938 1.738281 9.964844 L 18.261719 0.433594 C 19.296875 -0.144531 20.703125 -0.144531 21.738281 0.433594 L 38.261719 9.964844 C 39.335938 10.585938 40 11.738281 40 12.976562 L 40 32 C 40 33.238281 39.335938 34.394531 38.261719 35.011719 L 21.738281 44.546875 C 21.199219 44.792969 20.578125 44.917969 20 44.917969 Z M 25.09375 31.835938 C 17.847656 31.835938 16.355469 28.535156 16.355469 25.726562 C 16.355469 25.480469 16.5625 25.234375 16.851562 25.234375 L 19.007812 25.234375 C 19.253906 25.234375 19.460938 25.398438 19.460938 25.644531 C 19.792969 27.832031 20.746094 28.90625 25.132812 28.90625 C 28.613281 28.90625 30.105469 28.121094 30.105469 26.265625 C 30.105469 25.191406 29.6875 24.40625 24.265625 23.871094 C 19.75 23.417969 16.9375 22.425781 16.9375 18.835938 C 16.9375 15.496094 19.75 13.515625 24.472656 13.515625 C 29.773438 13.515625 32.382812 15.328125 32.710938 19.292969 C 32.710938 19.414062 32.671875 19.539062 32.589844 19.664062 C 32.503906 19.746094 32.382812 19.828125 32.257812 19.828125 L 30.105469 19.828125 C 29.894531 19.828125 29.6875 19.664062 29.648438 19.457031 C 29.152344 17.1875 27.867188 16.445312 24.472656 16.445312 C 20.664062 16.445312 20.207031 17.765625 20.207031 18.753906 C 20.207031 19.953125 20.746094 20.324219 25.878906 20.984375 C 30.972656 21.644531 33.375 22.59375 33.375 26.140625 C 33.332031 29.773438 30.351562 31.835938 25.09375 31.835938 Z M 25.09375 31.835938 "/>
</g>
</svg>
