<?xml version="1.0" encoding="UTF-8"?>
<svg xmlns="http://www.w3.org/2000/svg" xmlns:xlink="http://www.w3.org/1999/xlink" width="48px" height="48px" viewBox="0 0 48 48" version="1.1">
<defs>
<linearGradient id="linear0" gradientUnits="userSpaceOnUse" x1="-0.0277778" y1="0.32" x2="1" y2="0.675556" gradientTransform="matrix(48,0,0,47.875,0,0)">
<stop offset="0" style="stop-color:rgb(13.333333%,59.607843%,74.117647%);stop-opacity:1;"/>
<stop offset="1" style="stop-color:rgb(5.490196%,84.313725%,70.980392%);stop-opacity:1;"/>
</linearGradient>
</defs>
<g id="surface1">
<path style=" stroke:none;fill-rule:nonzero;fill:url(#linear0);" d="M 24 0 C 17.601562 0 13.601562 5.320312 12 15.957031 C 14.398438 10.640625 17.199219 8.644531 20.398438 9.972656 C 22.226562 10.734375 23.53125 12.933594 24.976562 15.371094 C 27.328125 19.34375 30.050781 23.9375 36 23.9375 C 42.398438 23.9375 46.398438 18.617188 48 7.980469 C 45.601562 13.296875 42.800781 15.292969 39.601562 13.964844 C 37.773438 13.203125 36.46875 11.003906 35.023438 8.566406 C 32.671875 4.59375 29.949219 0 24 0 Z M 12 23.9375 C 5.601562 23.9375 1.601562 29.257812 0 39.894531 C 2.398438 34.578125 5.199219 32.582031 8.398438 33.910156 C 10.226562 34.671875 11.53125 36.871094 12.976562 39.308594 C 15.328125 43.28125 18.050781 47.875 24 47.875 C 30.398438 47.875 34.398438 42.554688 36 31.917969 C 33.601562 37.238281 30.800781 39.230469 27.601562 37.902344 C 25.773438 37.140625 24.46875 34.941406 23.023438 32.503906 C 20.671875 28.53125 17.949219 23.9375 12 23.9375 Z M 12 23.9375 "/>
</g>
</svg>
